<svg xmlns="http://www.w3.org/2000/svg" width="697.623" height="91.95" viewBox="0 0 697.62256 91.949997"><title>Slice 1</title><defs><radialGradient cx="24.939" cy="-4.529" fx="24.939" fy="-4.529" r="96.027" id="a" gradientTransform="scale(.8531 1.1722)" gradientUnits="userSpaceOnUse"><stop stop-color="#727272" offset="0%"/><stop stop-color="#5F5F5F" offset="100%"/></radialGradient><radialGradient cx="27.151" cy="40.732" fx="27.151" fy="40.732" r="68.675" id="b" gradientTransform="scale(.8848 1.1302)" gradientUnits="userSpaceOnUse"><stop stop-color="#CECECE" offset="0%"/><stop stop-color="#C3C3C3" offset="100%"/></radialGradient><linearGradient x1="53.288" y1="46.916" x2="21.402" y2="46.916" id="c" gradientTransform="scale(.81127 1.23264)" gradientUnits="userSpaceOnUse"><stop stop-color="#202020" stop-opacity=".2" offset="0%"/><stop stop-color="#F2F2F2" stop-opacity=".25" offset="100%"/></linearGradient><radialGradient cx="37.21" cy="82.989" fx="37.21" fy="82.989" r="96.022" id="d" gradientTransform="scale(.85316 1.1721)" gradientUnits="userSpaceOnUse"><stop stop-color="gray" offset="0%"/><stop stop-color="#7C7C7C" offset="100%"/></radialGradient><radialGradient cx="32.776" cy="40.639" fx="32.776" fy="40.639" r="68.678" id="e" gradientTransform="scale(.8848 1.13022)" gradientUnits="userSpaceOnUse"><stop stop-color="#767676" offset="0%"/><stop stop-color="#636363" offset="100%"/></radialGradient><linearGradient x1="12.071" y1="27.693" x2="43.958" y2="27.693" id="f" gradientTransform="scale(.8113 1.23257)" gradientUnits="userSpaceOnUse"><stop stop-color="#202020" stop-opacity=".2" offset="0%"/><stop stop-color="#F2F2F2" stop-opacity=".25" offset="100%"/></linearGradient></defs><g fill="none" fill-rule="evenodd"><path d="M37.646 66.296c1.193 1.974 1.218 5.084.19 7.226l14.22-23.686c1.27-2.12 1.27-5.582 0-7.694L29.072 3.855C27.796 1.745 24.737.007 22.27.007H2.236C-.227.007-1.208 1.743.062 3.855l14.308 23.82c.087.12.21.23.285.34l22.99 38.28z" fill="url(#a)" transform="translate(63.992 -.007)"/><path d="M2.237 91.957H22.27c2.467 0 5.526-1.724 6.803-3.85l8.763-14.588c1.03-2.142 1.004-5.252-.19-7.227L23.06 42.138c1.265 2.112 1.265 5.573 0 7.694L8.832 73.502c-.075.16-.11.344-.188.49L-.088 88.53c-.892 1.913.027 3.43 2.325 3.43z" fill="url(#b)" transform="translate(63.992 -.007)"/><path d="M37.646 66.296L23.058 42.14c1.266 2.112 1.266 5.573 0 7.694l-5.137 8.56 19.915 15.128c1.03-2.142 1.003-5.253-.19-7.226z" fill="url(#c)" transform="translate(63.992 -.007)"/><g><path d="M15.372 25.668c-1.18-1.975-1.22-5.087-.18-7.227L.96 42.13c-1.27 2.122-1.27 5.583 0 7.697l22.996 38.28c1.268 2.113 4.33 3.85 6.79 3.85H50.78c2.472 0 3.455-1.735 2.183-3.85L38.648 64.29c-.08-.124-.21-.23-.28-.343L15.37 25.667z" fill="url(#d)" transform="translate(-.01 -.007)"/><path d="M50.78.007H30.748c-2.458 0-5.522 1.727-6.79 3.848L15.19 18.442c-1.038 2.14-1 5.25.18 7.227L29.97 49.827c-1.272-2.114-1.272-5.576 0-7.697l14.22-23.67c.07-.157.106-.338.198-.49l8.728-14.533c.892-1.912-.036-3.43-2.334-3.43z" fill="url(#e)" transform="translate(-.01 -.007)"/><path d="M15.372 25.668l14.597 24.16c-1.273-2.115-1.273-5.577 0-7.698l5.136-8.556L15.19 18.442c-1.037 2.14-.998 5.252.182 7.226z" fill="url(#f)" transform="translate(-.01 -.007)"/></g></g><g fill="#fff"><path d="M323.78 21.07h7.542v51.21h-7.54V21.07zm-79.51 35.24c0 10.08-7.855 17.488-17.49 17.488-9.635 0-17.49-7.435-17.49-17.49 0-10.13 7.855-17.514 17.49-17.514 9.635 0 17.49 7.383 17.49 17.515zm-7.646 0c0-6.284-4.555-10.604-9.844-10.604-5.288 0-9.844 4.32-9.844 10.603 0 6.23 4.556 10.603 9.844 10.603 5.29 0 9.844-4.372 9.844-10.604zm45.844.078c0 10.08-7.855 17.49-17.49 17.49-9.634 0-17.49-7.41-17.49-17.49 0-10.132 7.856-17.49 17.49-17.49 9.635 0 17.49 7.332 17.49 17.49zm-7.672 0c0-6.284-4.555-10.603-9.844-10.603-5.288 0-9.844 4.32-9.844 10.603 0 6.23 4.556 10.603 9.844 10.603 5.315 0 9.844-4.397 9.844-10.602zm37.1-16.128h7.278v31.104c0 12.907-7.62 18.222-16.625 18.222-8.484 0-13.59-5.708-15.5-10.342l6.675-2.775c1.205 2.853 4.11 6.23 8.824 6.23 5.785 0 9.345-3.587 9.345-10.29v-2.513h-.262c-1.728 2.095-5.026 3.98-9.215 3.98-8.745 0-16.756-7.62-16.756-17.437 0-9.87 8.01-17.567 16.756-17.567 4.162 0 7.487 1.86 9.215 3.9h.262V40.26zm.523 16.18c0-6.178-4.112-10.682-9.348-10.682-5.288 0-9.74 4.504-9.74 10.682 0 6.1 4.452 10.525 9.74 10.525 5.236.026 9.347-4.424 9.347-10.525zm-131.876 9.766c-10.97 0-19.557-8.85-19.557-19.82s8.587-19.818 19.557-19.818c5.917 0 10.237 2.33 13.43 5.314l5.264-5.262c-4.45-4.268-10.394-7.514-18.694-7.514-15.028 0-27.673 12.253-27.673 27.28 0 15.03 12.646 27.282 27.674 27.282 8.116 0 14.243-2.67 19.034-7.645 4.922-4.922 6.44-11.834 6.44-17.437 0-1.754-.21-3.56-.445-4.896h-25.03v7.278h17.83c-.523 4.556-1.963 7.672-4.084 9.792-2.566 2.592-6.625 5.446-13.746 5.446zm180.493-4.058l5.97 3.98c-1.938 2.853-6.572 7.75-14.583 7.75-9.95 0-17.358-7.698-17.358-17.49 0-10.42 7.487-17.49 16.52-17.49 9.085 0 13.536 7.227 14.975 11.128l.787 1.99-23.406 9.687c1.78 3.508 4.556 5.288 8.484 5.288 3.927 0 6.65-1.936 8.613-4.842zm-18.353-6.31l15.63-6.493c-.864-2.173-3.43-3.718-6.493-3.718-3.9 0-9.32 3.456-9.136 10.21zM383.344 72.28h14.295c14.555 0 23.693-9.66 23.693-23.354 0-13.64-9.138-23.353-23.694-23.353h-14.296V72.28zm5.995-5.734v-35.24h8.3c10.707 0 17.566 6.467 17.566 17.62 0 11.232-6.86 17.62-17.567 17.62h-8.3zm52.02 6.78c7.384 0 12.07-4.188 13.956-8.743l-5.34-2.226c-1.703 4.058-5.21 5.472-8.746 5.472-4.948 0-9.844-3.666-10.184-10.447h25.265s.053-.655.053-1.1c0-10.315-6.126-17.044-15.656-17.044-9.4 0-15.657 7.958-15.657 17.043-.026 9.66 6.52 17.044 16.31 17.044zm8.615-20.89h-18.537c1.18-4.688 4.687-7.7 9.138-7.7 6.833 0 9.19 4.897 9.4 7.7zM470.71 72.28h5.996l13.064-31.967h-6.388l-9.53 24.793h-.13l-9.4-24.793h-6.52L470.71 72.28zm36.81 1.047c7.384 0 12.07-4.19 13.956-8.744l-5.34-2.226c-1.703 4.058-5.21 5.472-8.746 5.472-4.948 0-9.844-3.666-10.184-10.447h25.264s.053-.655.053-1.1c0-10.315-6.127-17.044-15.657-17.044-9.4 0-15.656 7.958-15.656 17.043 0 9.66 6.52 17.044 16.31 17.044zm8.615-20.892h-18.537c1.178-4.687 4.687-7.698 9.138-7.698 6.86 0 9.215 4.896 9.4 7.698zm17.88 19.845V25.547h-5.994V72.28h5.996zm21.6-33.015c-9.582 0-16.44 7.305-16.44 17.044 0 9.74 6.858 17.043 16.44 17.043 9.583 0 16.443-7.304 16.443-17.044s-6.834-17.045-16.442-17.045zm0 28.564c-5.34 0-10.445-4.242-10.445-11.547 0-7.304 5.08-11.546 10.446-11.546 5.367 0 10.446 4.242 10.446 11.546 0 7.305-5.08 11.546-10.446 11.546zm38.513 5.497c8.09 0 15.212-7.252 15.212-17.044 0-9.792-7.122-17.044-15.212-17.044-5.08 0-9.058 2.54-10.89 5.47h-.263v-4.423h-5.734v46.078h5.997V72.28l-.262-4.425h.262c1.806 2.933 5.786 5.472 10.89 5.472zm-.995-5.498c-5.34 0-10.184-4.242-10.184-11.547 0-7.304 4.816-11.546 10.183-11.546 5.34 0 10.185 4.373 10.185 11.546 0 7.174-4.817 11.546-10.185 11.546zm36.157 5.497c7.383 0 12.07-4.19 13.954-8.744l-5.34-2.226c-1.703 4.058-5.21 5.472-8.745 5.472-4.95 0-9.845-3.666-10.186-10.447h25.265s.05-.655.05-1.1c0-10.315-6.125-17.044-15.655-17.044-9.4 0-15.656 7.958-15.656 17.043 0 9.66 6.518 17.044 16.31 17.044zm8.613-20.892h-18.536c1.178-4.687 4.686-7.698 9.137-7.698 6.86 0 9.216 4.896 9.4 7.698zm17.882 19.845V54.79c0-5.864 4.19-9.32 8.3-9.32 1.308 0 2.356.13 3.194.445l2.276-5.602c-1.23-.524-2.54-.786-4.503-.786-3.325 0-7.96 2.357-9.268 5.996h-.262v-5.21h-5.733V72.28h5.995zm29.244 1.047c7.513 0 12.593-4.372 12.593-10.053 0-3.928-2.488-7.83-8.797-9.32l-6.336-1.493c-2.54-.575-4.242-1.7-4.242-3.717 0-2.618 2.933-4.11 6.336-4.11 3.142 0 6.074 1.23 7.305 4.24l5.21-2.146c-1.965-4.896-6.782-7.435-12.332-7.435-6.65 0-12.672 3.717-12.672 9.53 0 5.602 5.603 8.168 8.56 8.875l6.468 1.57c3.403.84 4.372 2.62 4.372 4.242 0 2.67-2.67 4.502-6.388 4.502-3.85 0-6.99-1.963-8.692-5.995l-5.34 2.225c1.884 4.503 6.256 9.085 13.953 9.085z"/></g></svg>